<!-- Generated by IcoMoon.io -->
<svg version="1.1" xmlns="http://www.w3.org/2000/svg" width="32" height="32" viewBox="0 0 32 32">
<path d="M15.827 3.1c0.41 0.204 0.871 0.787 1.18 1.134 2.654 2.964 4.046 6.739 3.799 10.714-0.239 3.845-2.137 7.26-4.988 9.784-0.54-0.369-1.034-0.894-1.466-1.383-2.421-2.738-3.749-6.587-3.518-10.237 0.239-3.764 2.163-7.53 4.993-10.011z"></path>
<path d="M27.119 8.472c0.008 0.014 0.017 0.027 0.023 0.041 0.151 0.308 0.195 0.795 0.233 1.137 0.199 1.775 0.035 3.555-0.589 5.235-1.56 4.198-5.164 7.289-9.151 9.122-0.047 0-0.015 0.003-0.087-0.038 0.243-0.398 0.584-0.755 0.864-1.129 0.43-0.585 0.82-1.197 1.166-1.834 1.22-2.246 1.805-4.717 1.803-7.266 0-0.724-0.017-1.446-0.227-2.146 0.374-0.415 0.831-0.764 1.276-1.101 1.432-1.084 2.876-1.839 4.688-2.019z"></path>
<path d="M4.484 8.5c0.215 0.008 0.432 0.036 0.645 0.068 1.637 0.249 3.070 1.121 4.349 2.13 0.357 0.281 0.748 0.575 1.017 0.945-0.68 3.493 0.222 7.157 2.029 10.179 0.288 0.481 0.6 0.946 0.934 1.396 0.16 0.214 0.349 0.409 0.492 0.634l-0.051 0.066c-2.979-1.274-5.77-3.528-7.564-6.222-1.883-2.826-2.506-5.872-1.849-9.197z"></path>
<path d="M30.033 16.286c0.475-0.057 1.539-0.117 1.937 0.137 0.020 0.060 0.027 0.066 0.028 0.139 0.008 0.279-0.174 0.696-0.269 0.955-0.632 1.794-1.714 3.396-3.141 4.651-2.795 2.471-6.418 3.358-10.077 3.123-0.691-0.072-1.403-0.12-2.068-0.332 3.066-0.942 5.982-2.869 8.095-5.275 0.52-0.592 0.9-1.278 1.406-1.873 0.959-1.129 2.698-1.428 4.088-1.526z"></path>
<path d="M0.747 16.38c1.429-0.168 3.367 0.067 4.543 0.956 0.699 0.529 1.121 1.511 1.7 2.179 1.809 2.093 4.072 3.745 6.62 4.826 0.542 0.233 1.1 0.475 1.674 0.616l-1.146 0.191c-3.338 0.481-6.797-0.116-9.652-1.973-1.945-1.264-3.314-2.999-4.119-5.163-0.118-0.317-0.295-0.661-0.355-0.992-0.035-0.193-0.005-0.321 0.109-0.484 0.179-0.132 0.413-0.131 0.629-0.156z"></path>
<path d="M15.999 25.183c0.58 0.206 1.165 0.372 1.774 0.47 1.049 0.17 2.268 0.12 3.211 0.667 0.696 0.404 1.409 1.349 1.606 2.133 0.036 0.144 0.025 0.155-0.049 0.274-0.728 0.263-1.437 0.2-2.162-0.037-1.746-0.571-3.527-1.845-4.381-3.508z"></path>
<path d="M15.67 25.198c0.037-0.003 0.072 0.016 0.108 0.027-0.002 0.016-0.001 0.034-0.006 0.050-0.089 0.372-1.527 1.887-1.86 2.15-1.147 0.905-2.851 1.626-4.33 1.448-0.039-0.008-0.095-0.020-0.131-0.036-0.080-0.037-0.13-0.066-0.152-0.153-0.056-0.232 0.075-0.5 0.181-0.702 0.339-0.648 0.87-1.409 1.535-1.759 0.82-0.431 2.031-0.43 2.942-0.592 0.584-0.104 1.146-0.262 1.713-0.434z"></path>
</svg>
